<?xml version="1.0" encoding="UTF-8"?> <svg xmlns="http://www.w3.org/2000/svg" width="2049" height="1531" viewBox="0 0 2049 1531" fill="none"> <g filter="url(#filter0_f_27_310)"> <ellipse cx="1064.3" cy="956.502" rx="328.358" ry="327.907" fill="url(#paint0_linear_27_310)" fill-opacity="0.69"></ellipse> </g> <ellipse opacity="0.3" cx="1119.07" cy="787.806" rx="277.42" ry="102.93" transform="rotate(28.4928 1119.07 787.806)" fill="url(#paint1_linear_27_310)"></ellipse> <path fill-rule="evenodd" clip-rule="evenodd" d="M1167.62 1109.76C1167.17 1110.56 1166.69 1111.33 1166.18 1112.09L1167.7 1113.06C1168.22 1112.28 1168.72 1111.48 1169.19 1110.65C1195.01 1065.14 1120.54 974.12 1002.85 907.352C885.161 840.585 768.825 823.354 743.005 868.865C717.652 913.553 788.992 1002.11 902.992 1068.51L902.83 1068.81L914.557 1076.03L913.655 1073.25V1072.52C913.559 1072.47 913.462 1072.41 913.365 1072.36L908.694 1057.99L903.852 1066.93C848.066 1034.43 802.592 996.645 773.756 961.402C758.788 943.108 748.365 925.574 743.269 909.885C738.172 894.196 738.454 880.543 744.574 869.756C750.694 858.969 762.269 851.722 778.35 848.048C794.432 844.374 814.83 844.325 838.212 847.789C884.963 854.713 943.257 875.619 1001.96 908.921C1060.66 942.224 1108.51 981.537 1138.44 1018.12C1153.41 1036.41 1163.83 1053.94 1168.93 1069.63C1174.02 1085.32 1173.74 1098.97 1167.62 1109.76Z" fill="white"></path> <ellipse opacity="0.3" cx="865.619" cy="1146.82" rx="254.031" ry="96.9191" transform="rotate(29.7816 865.619 1146.82)" fill="url(#paint2_linear_27_310)"></ellipse> <path d="M1234.01 998.136C1227.72 1009.22 1215.87 1016.57 1199.65 1020.28C1183.42 1023.99 1162.9 1024.02 1139.45 1020.55C1092.56 1013.61 1034.16 992.653 975.392 959.31C916.619 925.967 868.674 886.587 838.659 849.903C823.649 831.558 813.155 813.926 808.012 798.093C802.869 782.261 803.103 768.323 809.39 757.24C815.678 746.158 827.521 738.806 843.75 735.099C859.979 731.391 880.498 731.353 903.945 734.826C950.832 741.771 1009.23 762.723 1068 796.066C1126.78 829.41 1174.72 868.79 1204.74 905.474C1219.75 923.818 1230.24 941.45 1235.38 957.283C1240.53 973.116 1240.29 987.054 1234.01 998.136Z" stroke="white" stroke-width="1.80417"></path> <path fill-rule="evenodd" clip-rule="evenodd" d="M1114.69 1211.83L1113.24 1210.76C1114.07 1209.63 1114.83 1208.45 1115.53 1207.22C1116.22 1205.99 1116.84 1204.73 1117.39 1203.44L1119.05 1204.14C1118.48 1205.5 1117.83 1206.82 1117.1 1208.11C1116.37 1209.4 1115.56 1210.64 1114.69 1211.83ZM1121.56 1195.68L1119.78 1195.36C1120.27 1192.65 1120.51 1189.83 1120.49 1186.9L1122.29 1186.88C1122.31 1189.92 1122.07 1192.86 1121.56 1195.68ZM1121.55 1178.05C1121.11 1175.25 1120.47 1172.38 1119.65 1169.44L1117.92 1169.93C1118.72 1172.8 1119.34 1175.61 1119.77 1178.33L1121.55 1178.05ZM1116.86 1161.04L1115.18 1161.68C1114.17 1159.05 1113.03 1156.38 1111.75 1153.66L1113.38 1152.89C1114.68 1155.65 1115.84 1158.36 1116.86 1161.04ZM1109.37 1145.03L1107.78 1145.9C1106.42 1143.41 1104.94 1140.89 1103.37 1138.35L1104.9 1137.4C1106.49 1139.97 1107.98 1142.51 1109.37 1145.03ZM1100.07 1129.98L1098.58 1131C1096.97 1128.63 1095.27 1126.25 1093.49 1123.85L1094.94 1122.77C1096.73 1125.19 1098.44 1127.59 1100.07 1129.98ZM1089.54 1115.76L1088.13 1116.89C1086.33 1114.63 1084.47 1112.37 1082.54 1110.1L1083.91 1108.93C1085.85 1111.22 1087.73 1113.49 1089.54 1115.76ZM1078.09 1102.27L1076.75 1103.48C1074.81 1101.33 1072.82 1099.17 1070.77 1097.01L1072.08 1095.77C1074.14 1097.94 1076.14 1100.11 1078.09 1102.27ZM1065.92 1089.42L1064.64 1090.69C1062.59 1088.63 1060.5 1086.57 1058.35 1084.51L1059.6 1083.21C1061.76 1085.28 1063.86 1087.35 1065.92 1089.42ZM1053.15 1077.13L1051.93 1078.46C1049.79 1076.49 1047.61 1074.52 1045.39 1072.55L1046.58 1071.2C1048.81 1073.18 1051 1075.15 1053.15 1077.13ZM1039.92 1065.4C1037.7 1063.51 1035.44 1061.61 1033.14 1059.72L1031.99 1061.12C1034.28 1063 1036.53 1064.89 1038.75 1066.77L1039.92 1065.4ZM1026.26 1054.16L1025.13 1055.57C1022.85 1053.75 1020.52 1051.94 1018.17 1050.13L1019.27 1048.7C1021.63 1050.52 1023.96 1052.33 1026.26 1054.16ZM1012.21 1043.37L1011.13 1044.82C1008.79 1043.08 1006.42 1041.35 1004.02 1039.63L1005.07 1038.16C1007.48 1039.89 1009.86 1041.63 1012.21 1043.37ZM997.847 1033.05L996.816 1034.53C994.413 1032.86 991.983 1031.19 989.526 1029.54L990.534 1028.04C992.999 1029.7 995.437 1031.37 997.847 1033.05ZM983.165 1023.15L982.179 1024.66C979.732 1023.06 977.261 1021.47 974.765 1019.89L975.73 1018.37C978.233 1019.95 980.712 1021.55 983.165 1023.15ZM968.216 1013.69L967.272 1015.22C964.774 1013.69 962.252 1012.17 959.709 1010.65L960.631 1009.1C963.182 1010.62 965.71 1012.15 968.216 1013.69ZM953.008 1004.64L952.107 1006.2C950.83 1005.47 949.548 1004.73 948.261 1004C946.974 1003.27 945.688 1002.55 944.401 1001.83L945.281 1000.26C946.571 1000.98 947.861 1001.7 949.152 1002.44C950.442 1003.17 951.728 1003.9 953.008 1004.64ZM937.538 996.003L936.68 997.59C934.077 996.183 931.476 994.8 928.878 993.442L929.714 991.843C932.319 993.205 934.928 994.592 937.538 996.003ZM921.838 987.796L921.025 989.406C918.389 988.075 915.756 986.769 913.129 985.489L913.92 983.867C916.554 985.151 919.194 986.46 921.838 987.796ZM905.941 980.05L905.175 981.683C902.492 980.424 899.817 979.192 897.148 977.987L897.891 976.343C900.567 977.551 903.251 978.787 905.941 980.05ZM889.798 972.762L889.08 974.417C886.368 973.242 883.665 972.095 880.972 970.977L881.664 969.311C884.365 970.432 887.077 971.583 889.798 972.762ZM873.465 965.984L872.8 967.661C870.041 966.568 867.295 965.505 864.562 964.474L865.199 962.786C867.941 963.821 870.697 964.887 873.465 965.984ZM856.89 959.732L856.282 961.43C853.492 960.432 850.718 959.467 847.961 958.537L848.538 956.827C851.305 957.762 854.09 958.73 856.89 959.732ZM840.144 954.079L839.599 955.799C836.768 954.902 833.957 954.041 831.168 953.218L831.679 951.488C834.479 952.315 837.301 953.179 840.144 954.079ZM823.153 949.066L822.679 950.807C819.809 950.025 816.965 949.283 814.148 948.583L814.584 946.832C817.414 947.536 820.271 948.281 823.153 949.066ZM805.969 944.797L805.576 946.558C802.671 945.909 799.798 945.306 796.961 944.749L797.309 942.979C800.162 943.539 803.049 944.145 805.969 944.797ZM788.604 941.395L788.306 943.174C785.366 942.683 782.467 942.244 779.613 941.858L779.855 940.07C782.728 940.459 785.645 940.9 788.604 941.395ZM771.066 939.033L770.887 940.829C767.913 940.531 764.994 940.296 762.135 940.122L762.244 938.321C765.128 938.496 768.07 938.734 771.066 939.033ZM753.401 937.98L753.373 939.784C750.38 939.737 747.463 939.765 744.624 939.869L744.558 938.066C747.43 937.961 750.379 937.932 753.401 937.98ZM735.751 938.652L735.928 940.448C732.939 940.743 730.056 941.133 727.285 941.618L726.974 939.841C729.793 939.347 732.72 938.951 735.751 938.652ZM718.324 941.758L718.799 943.498C715.921 944.283 713.198 945.192 710.638 946.223L709.964 944.549C712.595 943.49 715.384 942.56 718.324 941.758ZM702.001 948.441L702.916 949.995C700.387 951.484 698.084 953.134 696.015 954.944L694.827 953.586C696.987 951.697 699.383 949.982 702.001 948.441ZM688.85 960.075C688.56 960.472 688.277 960.874 688.002 961.281L689.52 962.257C689.775 961.88 690.037 961.509 690.306 961.142L688.85 960.075ZM854.391 1169.47C853.534 1168.98 852.679 1168.49 851.827 1168L852.196 1166.83L851.938 1166.66L852.274 1166.59L852.383 1166.24C852.515 1166.32 852.648 1166.4 852.781 1166.47L870.434 1162.44L862.193 1173.48L858.58 1171.08L858.262 1171.64C856.972 1170.92 855.681 1170.2 854.391 1169.47ZM866.004 1175.9L866.862 1174.31C869.465 1175.72 872.066 1177.1 874.664 1178.46L873.828 1180.06C871.223 1178.7 868.615 1177.31 866.004 1175.9ZM881.704 1184.11L882.517 1182.5C885.154 1183.83 887.786 1185.13 890.413 1186.41L889.623 1188.03C886.988 1186.75 884.348 1185.44 881.704 1184.11ZM897.601 1191.85L898.368 1190.22C901.05 1191.48 903.726 1192.71 906.394 1193.91L905.652 1195.56C902.975 1194.35 900.291 1193.11 897.601 1191.85ZM913.744 1199.14L914.462 1197.48C917.174 1198.66 919.877 1199.81 922.57 1200.92L921.879 1202.59C919.177 1201.47 916.465 1200.32 913.744 1199.14ZM930.077 1205.92L930.742 1204.24C933.501 1205.33 936.248 1206.4 938.981 1207.43L938.344 1209.12C935.601 1208.08 932.845 1207.01 930.077 1205.92ZM946.653 1212.17L947.26 1210.47C950.05 1211.47 952.825 1212.43 955.581 1213.36L955.004 1215.07C952.237 1214.14 949.453 1213.17 946.653 1212.17ZM963.399 1217.82L963.944 1216.1C966.775 1217 969.586 1217.86 972.375 1218.68L971.864 1220.41C969.063 1219.59 966.241 1218.72 963.399 1217.82ZM980.389 1222.83L980.863 1221.09C983.733 1221.88 986.578 1222.62 989.394 1223.32L988.959 1225.07C986.129 1224.37 983.272 1223.62 980.389 1222.83ZM997.573 1227.1L997.967 1225.34C1000.87 1225.99 1003.74 1226.6 1006.58 1227.15L1006.23 1228.92C1003.38 1228.36 1000.49 1227.76 997.573 1227.1ZM1014.94 1230.51L1015.24 1228.73C1018.18 1229.22 1021.08 1229.66 1023.93 1230.04L1023.69 1231.83C1020.81 1231.44 1017.9 1231 1014.94 1230.51ZM1032.48 1232.87L1032.66 1231.07C1035.63 1231.37 1038.55 1231.61 1041.41 1231.78L1041.3 1233.58C1038.41 1233.41 1035.47 1233.17 1032.48 1232.87ZM1050.14 1233.92L1050.17 1232.12C1053.16 1232.16 1056.08 1232.14 1058.92 1232.03L1058.98 1233.84C1056.11 1233.94 1053.16 1233.97 1050.14 1233.92ZM1067.79 1233.25L1067.61 1231.45C1070.6 1231.16 1073.49 1230.77 1076.26 1230.28L1076.57 1232.06C1073.75 1232.55 1070.82 1232.95 1067.79 1233.25ZM1085.22 1230.14L1084.74 1228.4C1087.62 1227.62 1090.34 1226.71 1092.9 1225.68L1093.58 1227.35C1090.95 1228.41 1088.16 1229.34 1085.22 1230.14ZM1101.54 1223.46L1100.63 1221.91C1103.16 1220.42 1105.46 1218.77 1107.53 1216.96L1108.72 1218.32C1106.56 1220.2 1104.16 1221.92 1101.54 1223.46Z" fill="white"></path> <path fill-rule="evenodd" clip-rule="evenodd" d="M1265.57 949.633L1264.1 948.584C1264.87 947.566 1265.57 946.502 1266.2 945.392C1266.83 944.282 1267.38 943.137 1267.86 941.958L1269.51 942.678C1269.01 943.915 1268.43 945.117 1267.76 946.282C1267.1 947.448 1266.37 948.564 1265.57 949.633ZM1271.61 934.929L1269.87 934.556C1270.24 932.066 1270.35 929.455 1270.21 926.731L1271.98 926.793C1272.12 929.614 1272 932.329 1271.61 934.929ZM1270.89 918.566C1270.34 915.947 1269.61 913.256 1268.69 910.499L1267.01 910.879C1267.91 913.578 1268.63 916.205 1269.16 918.753L1270.89 918.566ZM1265.62 902.581L1264 903.111C1262.91 900.631 1261.68 898.102 1260.32 895.529L1261.88 894.881C1263.26 897.491 1264.51 900.059 1265.62 902.581ZM1257.64 887.421L1256.13 888.163C1254.69 885.797 1253.15 883.399 1251.51 880.973L1252.97 880.154C1254.63 882.604 1256.19 885.027 1257.64 887.421ZM1247.95 873.074L1246.54 873.958C1244.86 871.697 1243.1 869.415 1241.27 867.114L1242.64 866.176C1244.49 868.493 1246.26 870.794 1247.95 873.074ZM1237.08 859.447L1235.74 860.434C1233.9 858.271 1231.99 856.094 1230.01 853.907L1231.3 852.879C1233.29 855.08 1235.22 857.27 1237.08 859.447ZM1225.34 846.46L1224.08 847.525C1222.1 845.451 1220.07 843.369 1217.98 841.28L1219.21 840.182C1221.31 842.281 1223.35 844.375 1225.34 846.46ZM1212.93 834.036L1211.73 835.164C1209.65 833.171 1207.52 831.172 1205.34 829.171L1206.51 828.015C1208.7 830.025 1210.84 832.033 1212.93 834.036ZM1199.96 822.113L1198.82 823.294C1196.65 821.377 1194.44 819.459 1192.19 817.54L1193.3 816.335C1195.56 818.262 1197.78 820.188 1199.96 822.113ZM1186.55 810.684C1184.3 808.834 1182.02 806.985 1179.7 805.137L1178.64 806.384C1180.95 808.224 1183.22 810.067 1185.46 811.91L1186.55 810.684ZM1172.75 799.691L1171.71 800.957C1169.4 799.177 1167.06 797.4 1164.69 795.627L1165.7 794.344C1168.08 796.123 1170.43 797.906 1172.75 799.691ZM1158.58 789.108L1157.59 790.408C1155.24 788.7 1152.85 786.996 1150.43 785.297L1151.4 783.98C1153.82 785.684 1156.22 787.394 1158.58 789.108ZM1144.14 778.943L1143.19 780.275C1140.77 778.625 1138.33 776.981 1135.86 775.343L1136.79 773.996C1139.26 775.639 1141.71 777.288 1144.14 778.943ZM1129.39 769.157L1128.49 770.519C1126.03 768.935 1123.55 767.359 1121.05 765.791L1121.93 764.416C1124.44 765.988 1126.93 767.569 1129.39 769.157ZM1114.4 759.762L1113.54 761.151C1111.04 759.626 1108.51 758.109 1105.97 756.602L1106.8 755.2C1109.36 756.712 1111.89 758.233 1114.4 759.762ZM1099.18 750.746L1098.36 752.16C1097.08 751.425 1095.8 750.693 1094.51 749.963C1093.23 749.232 1091.94 748.508 1090.65 747.789L1091.45 746.363C1092.74 747.084 1094.03 747.81 1095.32 748.543C1096.61 749.275 1097.89 750.009 1099.18 750.746ZM1083.71 742.099L1082.94 743.537C1080.34 742.125 1077.74 740.735 1075.15 739.369L1075.9 737.919C1078.5 739.289 1081.1 740.683 1083.71 742.099ZM1068.04 733.841L1067.31 735.303C1064.68 733.96 1062.06 732.64 1059.44 731.345L1060.14 729.872C1062.77 731.171 1065.4 732.494 1068.04 733.841ZM1052.19 726.004L1051.51 727.489C1048.84 726.21 1046.18 724.958 1043.52 723.731L1044.18 722.235C1046.84 723.466 1049.52 724.722 1052.19 726.004ZM1036.13 718.581L1035.49 720.089C1032.8 718.887 1030.11 717.712 1027.43 716.565L1028.04 715.047C1030.73 716.198 1033.42 717.376 1036.13 718.581ZM1019.9 711.625L1019.32 713.154C1016.58 712.027 1013.85 710.929 1011.14 709.86L1011.69 708.319C1014.41 709.392 1017.15 710.494 1019.9 711.625ZM1003.45 705.146L1002.92 706.698C1000.16 705.658 997.409 704.649 994.678 703.673L995.172 702.11C997.914 703.09 1000.67 704.102 1003.45 705.146ZM986.86 699.217L986.398 700.791C983.596 699.843 980.815 698.93 978.057 698.051L978.485 696.466C981.255 697.348 984.047 698.265 986.86 699.217ZM970.059 693.872L969.666 695.468C966.831 694.625 964.022 693.82 961.242 693.055L961.596 691.448C964.389 692.217 967.211 693.025 970.059 693.872ZM953.098 689.209L952.785 690.827C949.921 690.106 947.091 689.429 944.296 688.796L944.564 687.167C947.373 687.804 950.219 688.484 953.098 689.209ZM935.995 685.342L935.777 686.982C932.885 686.406 930.035 685.88 927.232 685.406L927.395 683.756C930.217 684.234 933.085 684.763 935.995 685.342ZM918.767 682.436L918.665 684.094C915.748 683.697 912.887 683.359 910.087 683.082L910.12 681.415C912.945 681.695 915.828 682.035 918.767 682.436ZM901.468 680.737L901.514 682.41C898.588 682.245 895.74 682.152 892.971 682.133L892.833 680.457C895.634 680.476 898.513 680.57 901.468 680.737ZM884.253 680.642L884.5 682.315C881.592 682.467 878.792 682.712 876.105 683.049L875.728 681.387C878.461 681.044 881.305 680.796 884.253 680.642ZM867.357 682.813L867.891 684.448C865.112 685.059 862.489 685.791 860.03 686.644L859.303 685.063C861.83 684.187 864.518 683.438 867.357 682.813ZM851.683 688.35L852.641 689.83C850.231 691.109 848.049 692.546 846.101 694.142L844.885 692.833C846.918 691.168 849.189 689.674 851.683 688.35ZM839.311 698.612C838.509 699.681 837.776 700.797 837.115 701.963C837.037 702.1 836.96 702.237 836.885 702.375L838.406 703.353C838.497 703.186 838.59 703.019 838.684 702.853C839.314 701.743 840.012 700.679 840.777 699.661L839.311 698.612ZM1021.17 906.146L1021.94 904.708C1024.54 906.12 1027.14 907.51 1029.73 908.876L1028.98 910.326C1026.38 908.956 1023.78 907.562 1021.17 906.146ZM1036.84 914.403L1037.57 912.942C1040.2 914.285 1042.82 915.605 1045.44 916.9L1044.74 918.373C1042.11 917.074 1039.48 915.751 1036.84 914.403ZM1052.68 922.241L1053.37 920.756C1056.04 922.034 1058.7 923.287 1061.36 924.514L1060.7 926.01C1058.04 924.779 1055.36 923.523 1052.68 922.241ZM1068.75 929.663L1069.39 928.156C1072.08 929.358 1074.77 930.532 1077.45 931.68L1076.84 933.198C1074.15 932.047 1071.46 930.869 1068.75 929.663ZM1084.98 936.62L1085.56 935.09C1088.3 936.218 1091.03 937.316 1093.74 938.385L1093.19 939.925C1090.47 938.853 1087.73 937.751 1084.98 936.62ZM1101.43 943.099L1101.95 941.547C1104.72 942.587 1107.47 943.596 1110.2 944.572L1109.71 946.135C1106.97 945.155 1104.21 944.143 1101.43 943.099ZM1118.02 949.028L1118.48 947.454C1121.28 948.402 1124.06 949.315 1126.82 950.193L1126.39 951.778C1123.62 950.897 1120.83 949.98 1118.02 949.028ZM1134.82 954.373L1135.21 952.777C1138.05 953.62 1140.86 954.424 1143.64 955.189L1143.28 956.797C1140.49 956.028 1137.67 955.22 1134.82 954.373ZM1151.78 959.036L1152.09 957.418C1154.96 958.139 1157.79 958.816 1160.58 959.449L1160.32 961.078C1157.51 960.441 1154.66 959.761 1151.78 959.036ZM1168.88 962.902L1169.1 961.263C1171.99 961.839 1174.84 962.365 1177.65 962.839L1177.48 964.489C1174.66 964.011 1171.79 963.482 1168.88 962.902ZM1186.11 965.809L1186.21 964.15C1189.13 964.548 1191.99 964.885 1194.79 965.163L1194.76 966.83C1191.93 966.55 1189.05 966.21 1186.11 965.809ZM1203.41 967.508L1203.37 965.835C1206.29 966 1209.14 966.093 1211.91 966.112L1212.05 967.788C1209.25 967.769 1206.37 967.675 1203.41 967.508ZM1220.63 967.603L1220.38 965.929C1223.29 965.778 1226.09 965.533 1228.77 965.196L1229.15 966.858C1226.42 967.201 1223.57 967.449 1220.63 967.603ZM1237.52 965.432L1236.99 963.797C1239.77 963.185 1242.39 962.454 1244.85 961.601L1245.58 963.182C1243.05 964.058 1240.36 964.807 1237.52 965.432ZM1253.2 959.895L1252.24 958.415C1254.65 957.136 1256.83 955.699 1258.78 954.103L1259.99 955.412C1257.96 957.077 1255.69 958.571 1253.2 959.895ZM1016.45 905.557L1006.19 898.745L1024.69 894.526L1016.45 905.557Z" fill="white"></path> <g filter="url(#filter1_f_27_310)"> <rect x="599" y="599" width="851" height="192" fill="#977DFF"></rect> </g> <g opacity="0.31"> <g opacity="0.7" filter="url(#filter2_f_27_310)"> <ellipse cx="1000.5" cy="733.399" rx="400.5" ry="70.7702" fill="#B0C6FF"></ellipse> </g> <g opacity="0.7" filter="url(#filter3_f_27_310)"> <ellipse cx="992.5" cy="736.023" rx="341.5" ry="70.9766" fill="#977DFF"></ellipse> </g> <g opacity="0.7" filter="url(#filter4_f_27_310)"> <ellipse cx="1001.14" cy="690.996" rx="255.145" ry="66.9958" fill="#9BC1F9"></ellipse> </g> </g> <defs> <filter id="filter0_f_27_310" x="489.676" y="382.326" width="1149.25" height="1148.35" filterUnits="userSpaceOnUse" color-interpolation-filters="sRGB"> <feFlood flood-opacity="0" result="BackgroundImageFix"></feFlood> <feBlend mode="normal" in="SourceGraphic" in2="BackgroundImageFix" result="shape"></feBlend> <feGaussianBlur stdDeviation="123.134" result="effect1_foregroundBlur_27_310"></feGaussianBlur> </filter> <filter id="filter1_f_27_310" x="0" y="0" width="2049" height="1390" filterUnits="userSpaceOnUse" color-interpolation-filters="sRGB"> <feFlood flood-opacity="0" result="BackgroundImageFix"></feFlood> <feBlend mode="normal" in="SourceGraphic" in2="BackgroundImageFix" result="shape"></feBlend> <feGaussianBlur stdDeviation="299.5" result="effect1_foregroundBlur_27_310"></feGaussianBlur> </filter> <filter id="filter2_f_27_310" x="485" y="547.629" width="1031" height="371.54" filterUnits="userSpaceOnUse" color-interpolation-filters="sRGB"> <feFlood flood-opacity="0" result="BackgroundImageFix"></feFlood> <feBlend mode="normal" in="SourceGraphic" in2="BackgroundImageFix" result="shape"></feBlend> <feGaussianBlur stdDeviation="57.5" result="effect1_foregroundBlur_27_310"></feGaussianBlur> </filter> <filter id="filter3_f_27_310" x="536" y="550.047" width="913" height="371.953" filterUnits="userSpaceOnUse" color-interpolation-filters="sRGB"> <feFlood flood-opacity="0" result="BackgroundImageFix"></feFlood> <feBlend mode="normal" in="SourceGraphic" in2="BackgroundImageFix" result="shape"></feBlend> <feGaussianBlur stdDeviation="57.5" result="effect1_foregroundBlur_27_310"></feGaussianBlur> </filter> <filter id="filter4_f_27_310" x="631" y="509" width="740.29" height="363.992" filterUnits="userSpaceOnUse" color-interpolation-filters="sRGB"> <feFlood flood-opacity="0" result="BackgroundImageFix"></feFlood> <feBlend mode="normal" in="SourceGraphic" in2="BackgroundImageFix" result="shape"></feBlend> <feGaussianBlur stdDeviation="57.5" result="effect1_foregroundBlur_27_310"></feGaussianBlur> </filter> <linearGradient id="paint0_linear_27_310" x1="735.945" y1="881.035" x2="1235.1" y2="1050.07" gradientUnits="userSpaceOnUse"> <stop stop-color="#7450BF"></stop> <stop offset="1" stop-color="#D8A8EA"></stop> </linearGradient> <linearGradient id="paint1_linear_27_310" x1="853.671" y1="756.87" x2="1297.28" y2="834.779" gradientUnits="userSpaceOnUse"> <stop stop-color="white"></stop> <stop offset="1" stop-color="white" stop-opacity="0.38"></stop> </linearGradient> <linearGradient id="paint2_linear_27_310" x1="622.592" y1="1117.69" x2="1029.46" y2="1187.18" gradientUnits="userSpaceOnUse"> <stop stop-color="white"></stop> <stop offset="1" stop-color="white" stop-opacity="0.38"></stop> </linearGradient> </defs> </svg> 