<?xml version="1.0" encoding="UTF-8"?> <svg xmlns="http://www.w3.org/2000/svg" width="388" height="86" viewBox="0 0 388 86" fill="none"> <path d="M136.924 14.0207L133.126 12.2693L130.125 15L130.787 11.177L127 9.42561L131.201 8.82298L131.864 5L133.799 8.44633L138 7.84369L134.989 10.5744L136.924 14.0207Z" fill="#A4791D"></path> <path d="M236 30.3292L238.643 27.0075L237.44 22.9177L241.384 24.4339L244.845 22L244.647 26.2693L248 28.8529L243.928 29.9801L242.528 34L240.22 30.4289L236 30.3292Z" fill="#A4791D"></path> <path d="M294.941 41.9022L292.782 41.5237L291.228 43L290.95 40.918L289 39.9621L290.98 39.0631L291.327 37L292.832 38.5237L295 38.2019L293.95 40.0379L294.941 41.9022Z" fill="#C8AA53"></path> <path d="M300.545 10L299.386 6.64336L296 5.69431L298.802 3.55644L298.644 0L301.535 2.03796L304.832 0.789212L303.812 4.18582L306 6.96304L302.485 7.03297L300.545 10Z" fill="#C8AA53"></path> <path d="M311 80.6766L303.144 80.0398L298.148 86L296.347 78.4975L289 75.7015L295.736 71.7015L296.184 64L302.157 69.0348L309.789 67.0746L306.736 74.1891L311 80.6766Z" fill="#DFC976"></path> <path d="M150.547 40L150.01 37.9543L148 37.23L149.811 36.1044L149.891 34L151.542 35.3409L153.602 34.7635L152.806 36.721L154 38.4731L151.871 38.3458L150.547 40Z" fill="#C8AA53"></path> <path d="M90.1879 27.5554L93.1549 21.6348L90 15.804L96.4978 16.8224L101.008 12L102.056 18.5497L108 21.3852L102.155 24.4204L101.314 31L96.656 26.3274L90.1879 27.5554Z" fill="#DFC976"></path> <path d="M47 22.2681L44.6604 23.2773L44.0779 26L42.4993 23.8239L40 24.0447L41.3624 21.6899L40.3946 19.1038L42.8188 19.8292L44.7262 18L44.8577 20.7963L47 22.2681Z" fill="#C8AA53"></path> <path d="M20.3876 43L18.3034 41.6831L16.0716 42.7062L16.6419 40.2547L15 38.3806L17.4382 38.178L18.6671 36L19.6011 38.33L22 38.8466L20.132 40.4877L20.3876 43Z" fill="#DFC976"></path> <path d="M379 54.0679L375.768 53.6637L373.58 56L372.986 52.9047L370 51.6331L372.864 50.1249L373.211 47L375.574 49.1588L378.775 48.4984L377.374 51.3472L379 54.0679Z" fill="#C8AA53"></path> <path d="M386.865 17.6982L385.998 21.1246L388 23.8743L384.844 23.9925L383.138 27L382.06 23.6488L379 22.7465L381.498 20.5553L381.307 17L383.919 18.9979L386.865 17.6982Z" fill="#C8AA53"></path> <path d="M54.9278 68L53.4179 67.0909L51.8424 67.875L52.2035 66.1023L51 64.7841L52.7396 64.5909L53.5711 63L54.2823 64.6591L56 64.9886L54.698 66.2045L54.9278 68Z" fill="#A4791D"></path> <path d="M334.625 68L334.327 66.2895L333 65.6097L334.255 64.7434L334.372 63L335.438 64.1732L336.837 63.7675L336.251 65.3684L337 66.8596L335.564 66.6732L334.625 68Z" fill="#A4791D"></path> <path d="M188.251 16.4637L188.787 15.1626L188 13.9934L189.432 14.0901L190.318 13L190.667 14.3626L192 14.8549L190.792 15.5934L190.72 17L189.629 16.0945L188.251 16.4637Z" fill="#DFC976"></path> <path d="M6 11L4.02341 11.9267L3.70234 14L2.16722 12.5L0 12.8535L1.02341 11L0 9.14649L2.16722 9.5L3.70234 8L4.02341 10.0732L6 11Z" fill="#C8AA53"></path> </svg> 