<?xml version="1.0" encoding="UTF-8"?> <svg xmlns="http://www.w3.org/2000/svg" width="29" height="29" viewBox="0 0 29 29" fill="none"> <path d="M14.5 19.0312C13.6038 19.0312 12.7277 18.7655 11.9826 18.2676C11.2374 17.7697 10.6566 17.062 10.3137 16.234C9.97071 15.4061 9.88098 14.495 10.0558 13.616C10.2307 12.737 10.6622 11.9296 11.2959 11.2959C11.9296 10.6622 12.737 10.2307 13.616 10.0558C14.495 9.88098 15.4061 9.97071 16.234 10.3137C17.062 10.6566 17.7697 11.2374 18.2676 11.9826C18.7655 12.7277 19.0312 13.6038 19.0312 14.5C19.03 15.7014 18.5522 16.8532 17.7027 17.7027C16.8532 18.5522 15.7014 19.03 14.5 19.0312ZM14.5 11.7812C13.9623 11.7812 13.4366 11.9407 12.9895 12.2394C12.5424 12.5382 12.194 12.9628 11.9882 13.4596C11.7824 13.9564 11.7286 14.503 11.8335 15.0304C11.9384 15.5578 12.1973 16.0422 12.5776 16.4224C12.9578 16.8027 13.4422 17.0616 13.9696 17.1665C14.497 17.2714 15.0436 17.2176 15.5404 17.0118C16.0372 16.806 16.4618 16.4576 16.7606 16.0105C17.0593 15.5634 17.2188 15.0377 17.2188 14.5C17.2181 13.7791 16.9315 13.088 16.4217 12.5783C15.912 12.0685 15.2209 11.7819 14.5 11.7812ZM15.1042 26.2812H13.8958C13.175 26.2806 12.4838 25.994 11.9741 25.4842C11.4644 24.9745 11.1777 24.2834 11.1771 23.5625C11.1786 23.4754 11.1541 23.3897 11.1068 23.3166C11.0594 23.2434 10.9914 23.186 10.9113 23.1517H10.9016C10.8286 23.1215 10.7483 23.1136 10.6709 23.1291C10.5934 23.1446 10.5223 23.1827 10.4666 23.2387C9.95283 23.7466 9.26086 24.0336 8.53841 24.0383C7.81597 24.0431 7.12029 23.7652 6.59992 23.264L5.75408 22.411C5.50086 22.1583 5.29996 21.8582 5.16288 21.5278C5.0258 21.1974 4.95525 20.8432 4.95525 20.4855C4.95525 20.1278 5.0258 19.7736 5.16288 19.4432C5.29996 19.1128 5.50086 18.8127 5.75408 18.56C5.81405 18.4984 5.85479 18.4208 5.87132 18.3364C5.88784 18.2521 5.87943 18.1648 5.84713 18.0851C5.81761 18.0098 5.76633 17.945 5.69984 17.8989C5.63334 17.8529 5.55463 17.8277 5.47375 17.8265C5.11373 17.8301 4.75657 17.7623 4.42286 17.6271C4.08916 17.4919 3.7855 17.2921 3.5294 17.039C3.2733 16.7859 3.06982 16.4847 2.93069 16.1526C2.79156 15.8205 2.71953 15.4642 2.71875 15.1042V13.8958C2.71939 13.175 3.00603 12.4838 3.51576 11.9741C4.02549 11.4644 4.71664 11.1777 5.4375 11.1771C5.52454 11.1789 5.61011 11.1545 5.68313 11.1071C5.75616 11.0597 5.81329 10.9915 5.84713 10.9113V10.9016C5.87701 10.8286 5.8847 10.7483 5.86922 10.671C5.85375 10.5936 5.8158 10.5225 5.76013 10.4666C5.50272 10.2154 5.29771 9.91568 5.15696 9.58472C5.01621 9.25377 4.94252 8.89818 4.94016 8.53855C4.9378 8.17892 5.00682 7.82239 5.14321 7.48962C5.2796 7.15684 5.48067 6.85444 5.73475 6.59992L6.59146 5.74321C7.1088 5.24765 7.79752 4.97101 8.51392 4.97101C9.23031 4.97101 9.91903 5.24765 10.4364 5.74321C10.4974 5.80669 10.5761 5.8505 10.6622 5.86901C10.7483 5.88752 10.838 5.8799 10.9197 5.84713C10.9947 5.81772 11.0591 5.76657 11.1048 5.70025C11.1504 5.63393 11.1752 5.55547 11.1759 5.47496C11.1722 5.11504 11.2398 4.75795 11.3747 4.42426C11.5097 4.09057 11.7093 3.78688 11.9621 3.53069C12.215 3.27449 12.516 3.07085 12.8479 2.9315C13.1797 2.79215 13.5359 2.71985 13.8958 2.71875H15.1042C15.825 2.71939 16.5162 3.00603 17.0259 3.51576C17.5356 4.02549 17.8223 4.71664 17.8229 5.4375C17.8186 5.52254 17.8407 5.60684 17.8861 5.67886C17.9315 5.75088 17.9981 5.80712 18.0767 5.83988C18.1531 5.87243 18.2372 5.88256 18.3191 5.86908C18.4011 5.8556 18.4775 5.81907 18.5395 5.76375C18.7919 5.50506 19.0935 5.29952 19.4266 5.15924C19.7596 5.01895 20.1174 4.94676 20.4788 4.94692C20.836 4.94592 21.1898 5.01579 21.5198 5.15247C21.8498 5.28916 22.1494 5.48994 22.4013 5.74321L23.2544 6.58904C23.5068 6.8415 23.7071 7.14122 23.8437 7.47107C23.9804 7.80093 24.0507 8.15447 24.0507 8.5115C24.0507 8.86853 23.9804 9.22207 23.8437 9.55193C23.7071 9.88178 23.5068 10.1815 23.2544 10.434C23.1903 10.4907 23.1453 10.5658 23.1256 10.6491C23.1059 10.7324 23.1125 10.8198 23.1444 10.8992L23.1517 10.9161C23.1811 10.9906 23.2322 11.0546 23.2983 11.0998C23.3644 11.145 23.4425 11.1694 23.5226 11.1698C23.8833 11.1658 24.2411 11.2334 24.5755 11.3686C24.9098 11.5037 25.2141 11.7039 25.4706 11.9574C25.7271 12.2109 25.9309 12.5127 26.07 12.8454C26.2092 13.1782 26.281 13.5352 26.2812 13.8958V15.1042C26.2806 15.825 25.994 16.5162 25.4842 17.0259C24.9745 17.5356 24.2834 17.8223 23.5625 17.8229C23.4775 17.8186 23.3932 17.8407 23.3211 17.8861C23.2491 17.9315 23.1929 17.9981 23.1601 18.0767C23.128 18.1532 23.1181 18.2372 23.1316 18.319C23.145 18.4009 23.1813 18.4773 23.2362 18.5395C23.4933 18.7909 23.698 19.0909 23.8383 19.4221C23.9786 19.7532 24.0519 20.1089 24.0538 20.4685C24.0557 20.8281 23.9862 21.1846 23.8494 21.5172C23.7126 21.8498 23.5112 22.1519 23.2568 22.4061L22.411 23.2592C21.8936 23.7548 21.2049 24.0314 20.4885 24.0314C19.7721 24.0314 19.0834 23.7548 18.566 23.2592C18.5092 23.1952 18.4341 23.1503 18.3508 23.1307C18.2676 23.111 18.1803 23.1175 18.1008 23.1493C18.024 23.1793 17.9575 23.2311 17.9094 23.2982C17.8614 23.3654 17.8338 23.445 17.8302 23.5275C17.8335 23.8877 17.7655 24.245 17.63 24.5788C17.4946 24.9126 17.2943 25.2163 17.0409 25.4723C16.7875 25.7283 16.4858 25.9316 16.1534 26.0705C15.821 26.2093 15.4644 26.2809 15.1042 26.2812ZM11.71 21.5301C12.0879 21.7114 12.4078 21.9945 12.6338 22.3475C12.8598 22.7005 12.983 23.1095 12.9896 23.5287C12.9862 23.6502 13.0071 23.7712 13.051 23.8846C13.0949 23.9979 13.161 24.1014 13.2454 24.1889C13.3298 24.2764 13.4308 24.3463 13.5424 24.3943C13.6541 24.4424 13.7743 24.4677 13.8958 24.4688H15.1042C15.3445 24.4688 15.575 24.3733 15.745 24.2033C15.9149 24.0334 16.0104 23.8029 16.0104 23.5625C16.0098 23.116 16.1415 22.6792 16.3888 22.3074C16.6361 21.9356 16.9879 21.6454 17.4 21.4733C17.8041 21.3058 18.2488 21.2623 18.6777 21.3484C19.1065 21.4345 19.5001 21.6462 19.8082 21.9566C19.8915 22.0456 19.9918 22.117 20.1032 22.1666C20.2145 22.2162 20.3347 22.243 20.4566 22.2453C20.5784 22.2477 20.6996 22.2256 20.8127 22.1804C20.9259 22.1352 21.0289 22.0677 21.1156 21.982L21.9687 21.1362C22.1389 20.9658 22.2346 20.7348 22.2346 20.4939C22.2346 20.2531 22.1389 20.0221 21.9687 19.8517C21.6584 19.5393 21.4459 19.1431 21.3572 18.7117C21.2686 18.2803 21.3077 17.8325 21.4697 17.423V17.406L21.4781 17.3855C21.6442 16.9805 21.9274 16.6342 22.2914 16.391C22.6554 16.1477 23.0836 16.0186 23.5214 16.0201C23.6428 16.0233 23.7636 16.0023 23.8767 15.9583C23.9899 15.9143 24.0932 15.8481 24.1805 15.7638C24.2678 15.6794 24.3374 15.5784 24.3852 15.4668C24.433 15.3553 24.4582 15.2352 24.4591 15.1138V13.9055C24.4591 13.6651 24.3636 13.4346 24.1936 13.2647C24.0237 13.0947 23.7932 12.9993 23.5528 12.9993C23.1099 13.0047 22.6755 12.8777 22.3054 12.6344C21.9352 12.391 21.6463 12.0426 21.4757 11.6338C21.3002 11.2246 21.2518 10.7721 21.3369 10.3351C21.4221 9.89804 21.6367 9.49673 21.953 9.18333C22.0441 9.0976 22.1169 8.9943 22.1669 8.87966C22.217 8.76502 22.2433 8.64142 22.2442 8.51633C22.2446 8.39729 22.2213 8.27937 22.1756 8.16943C22.13 8.05948 22.0629 7.95971 21.9784 7.87592L21.1325 7.02283C21.0482 6.93873 20.9482 6.87207 20.8381 6.82666C20.728 6.78126 20.61 6.758 20.4909 6.75821C20.3716 6.75764 20.2533 6.78098 20.1431 6.82684C20.0329 6.87271 19.933 6.94017 19.8493 7.02525C19.5365 7.33507 19.1403 7.5472 18.7091 7.63581C18.2779 7.72442 17.8301 7.68567 17.4205 7.52429L17.4 7.52067L17.3795 7.51221C16.9744 7.34609 16.6281 7.06293 16.3849 6.69895C16.1417 6.33496 16.0126 5.90669 16.014 5.46892C16.0173 5.34754 15.9962 5.22675 15.9522 5.11359C15.9082 5.00043 15.8421 4.89718 15.7577 4.80988C15.6733 4.72258 15.5724 4.65297 15.4608 4.60513C15.3492 4.55729 15.2292 4.53217 15.1078 4.53125H13.8995C13.6591 4.53125 13.4286 4.62673 13.2586 4.79668C13.0887 4.96664 12.9932 5.19715 12.9932 5.4375C12.9985 5.88351 12.8693 6.32076 12.6225 6.69232C12.3757 7.06388 12.0228 7.35252 11.6097 7.52067C11.2032 7.68737 10.7568 7.73134 10.3256 7.64717C9.89437 7.56299 9.49728 7.35434 9.18333 7.047C9.09989 6.95866 8.99969 6.88784 8.88857 6.83866C8.77745 6.78948 8.65765 6.76293 8.53616 6.76057C8.41466 6.75821 8.29392 6.78008 8.18097 6.8249C8.06803 6.86972 7.96515 6.9366 7.87833 7.02163L7.02163 7.87833C6.93741 7.96249 6.8706 8.06242 6.82503 8.17241C6.77945 8.2824 6.75599 8.40029 6.75599 8.51935C6.75599 8.63841 6.77945 8.75631 6.82503 8.8663C6.8706 8.97628 6.93741 9.07621 7.02163 9.16038C7.34008 9.46991 7.55843 9.86781 7.64846 10.3027C7.7385 10.7376 7.69609 11.1895 7.52671 11.6C7.51018 11.6414 7.49122 11.6817 7.46992 11.7208C7.28703 12.0967 7.00331 12.4144 6.65041 12.6384C6.29751 12.8624 5.8893 12.984 5.47133 12.9896C5.3498 12.9862 5.22882 13.0071 5.11545 13.051C5.00209 13.0949 4.89861 13.161 4.81108 13.2454C4.72356 13.3298 4.65373 13.4308 4.60568 13.5424C4.55763 13.6541 4.53233 13.7743 4.53125 13.8958V15.1042C4.53125 15.3445 4.62673 15.575 4.79668 15.745C4.96664 15.9149 5.19715 16.0104 5.4375 16.0104C5.88093 16.0047 6.31586 16.1323 6.68597 16.3766C7.05609 16.6209 7.34434 16.9707 7.51342 17.3807L7.52067 17.3964L7.52671 17.4133C7.68874 17.8197 7.72932 18.2643 7.64352 18.6933C7.55773 19.1223 7.34924 19.5172 7.04338 19.83C6.95424 19.9145 6.88322 20.0162 6.83461 20.129C6.78601 20.2418 6.76084 20.3633 6.76062 20.4861C6.75972 20.6055 6.78266 20.7238 6.8281 20.8342C6.87354 20.9446 6.94057 21.0448 7.02525 21.1289L7.87833 21.9748C8.05099 22.1397 8.28058 22.2317 8.51935 22.2317C8.75813 22.2317 8.98772 22.1397 9.16038 21.9748C9.47041 21.657 9.8685 21.4395 10.3033 21.3501C10.7382 21.2607 11.1898 21.3036 11.6 21.4733C11.6377 21.4902 11.6744 21.5092 11.71 21.5301Z" fill="#BBBBBB"></path> </svg> 